<?xml version="1.0" standalone="no"?>
<!DOCTYPE svg PUBLIC "-//W3C//DTD SVG 20010904//EN"
 "http://www.w3.org/TR/2001/REC-SVG-20010904/DTD/svg10.dtd">
<svg version="1.0" xmlns="http://www.w3.org/2000/svg"
 width="196.000000pt" height="198.000000pt" viewBox="0 0 196.000000 198.000000"
 preserveAspectRatio="xMidYMid meet">
<g transform="translate(0.000000,198.000000) scale(0.100000,-0.100000)"
fill="#FFFFFF" stroke="none">
<path d="M93 1923 c-43 -6 -49 -17 -56 -99 -5 -59 -2 -78 14 -108 19 -35 19
-59 19 -592 -1 -410 2 -560 11 -570 8 -9 8 -14 1 -14 -8 0 -11 -73 -11 -230
l-1 -230 289 0 c159 1 301 -2 316 -6 20 -5 25 -11 22 -26 -7 -26 2 -48 18 -48
19 0 27 30 14 47 -14 16 -4 30 26 35 14 2 19 -3 20 -21 0 -13 7 -28 17 -34 24
-16 50 8 42 39 l-6 24 393 -4 c217 -2 405 -5 419 -5 14 -1 51 1 82 5 48 5 61
3 86 -16 46 -34 82 -25 108 30 19 40 20 47 7 67 -11 16 -13 37 -9 75 8 68 8
69 1 219 -6 107 -4 127 9 138 20 17 20 37 1 45 -9 3 -20 -3 -27 -14 -34 -54
-37 -28 -38 353 0 360 0 372 19 384 17 11 21 26 23 90 3 78 5 81 41 68 10 -4
17 -3 17 4 0 6 -8 11 -17 11 -17 1 -17 1 0 14 26 20 20 30 -8 12 l-25 -16 0
140 c0 84 4 150 11 162 8 15 8 19 0 14 -6 -4 -11 -2 -11 3 0 6 6 11 13 11 6 0
-1 7 -17 15 -39 20 -212 21 -252 0 -25 -12 -124 -14 -669 -11 -746 4 -694 2
-711 17 -11 9 -20 8 -38 -5 -28 -18 -62 -10 -85 18 -7 9 -16 15 -20 14 -3 0
-20 -3 -38 -5z m52 -23 c4 -6 -10 -10 -34 -10 l-41 0 0 -79 c0 -54 4 -81 13
-84 6 -2 10 -7 7 -10 -10 -11 -29 8 -31 33 -1 14 -1 53 -1 87 l2 62 33 4 c17
2 35 5 39 5 4 1 10 -2 13 -8z m1745 -264 c0 -159 -4 -257 -10 -261 -7 -4 -10
81 -10 249 l0 255 -102 4 -103 3 113 2 112 2 0 -254z m-884 214 c453 0 824 -2
824 -5 0 -3 0 -392 0 -865 l0 -860 -546 0 c-485 0 -547 -2 -561 -16 -15 -14
-17 -14 -25 0 -8 14 -45 16 -303 16 l-295 0 0 865 0 865 29 0 c17 0 33 5 37
12 6 9 9 9 12 0 3 -9 191 -12 828 -12z m885 -1389 c-1 -83 2 -131 9 -131 5 0
10 -7 10 -15 0 -8 -4 -15 -10 -15 -6 0 -10 -30 -10 -69 0 -52 4 -70 15 -75 8
-3 15 -10 15 -16 0 -5 -7 -10 -15 -10 -10 0 -15 -10 -15 -30 0 -28 -2 -30 -41
-30 -24 0 -38 4 -34 10 3 5 20 10 36 10 l30 0 -1 163 c-2 257 0 351 6 344 3
-3 5 -64 5 -136z"/>
<path d="M695 1296 c-23 -34 -55 -122 -55 -148 0 -32 19 -10 55 65 25 52 34
63 59 65 38 5 112 -24 131 -50 17 -25 12 -37 -50 -118 -61 -80 -68 -96 -54
-122 6 -12 36 -50 65 -85 69 -80 70 -103 9 -139 -25 -14 -60 -27 -77 -28 -30
-1 -35 4 -68 63 -40 73 -61 91 -87 75 -19 -12 -29 -37 -38 -96 l-6 -36 -69 -7
c-50 -5 -75 -4 -85 5 -13 10 -15 53 -15 254 0 132 4 247 9 255 8 13 73 30 116
30 36 1 48 -16 56 -79 12 -100 29 -99 29 2 0 64 -4 89 -15 98 -21 18 -161 8
-202 -14 l-33 -17 0 -280 0 -279 26 -11 c15 -5 60 -7 103 -4 127 10 121 6 121
78 0 55 12 100 23 87 2 -3 19 -37 37 -77 44 -98 56 -108 108 -90 59 21 130 64
148 92 15 23 15 27 -9 67 -14 24 -49 69 -77 100 l-51 58 54 67 c72 89 90 125
78 156 -12 30 -44 51 -111 71 -76 23 -106 21 -125 -8z"/>
<path d="M1034 1301 c-41 -10 -54 -19 -54 -38 0 -9 28 -69 62 -135 l63 -119
-19 -32 c-10 -18 -43 -79 -74 -135 -47 -89 -53 -106 -41 -118 35 -34 224 -43
256 -11 7 7 20 45 27 83 14 73 17 71 36 -14 15 -64 33 -78 117 -88 84 -9 150
2 164 27 8 17 -1 39 -60 136 -39 63 -71 119 -71 123 0 4 25 59 55 121 66 136
76 176 50 196 -26 18 -155 17 -204 -3 -42 -16 -51 -40 -51 -129 1 -36 2 -38
15 -22 7 11 17 37 20 58 4 25 15 45 30 55 32 21 117 29 144 14 29 -15 26 -28
-39 -164 -28 -58 -50 -113 -50 -123 0 -10 28 -67 61 -127 72 -126 71 -129 -38
-123 -83 5 -98 14 -115 69 -13 46 -45 73 -64 57 -7 -6 -21 -32 -30 -57 -9 -26
-24 -53 -33 -59 -27 -23 -168 -13 -177 12 -3 7 22 61 56 121 33 60 60 119 60
132 0 14 -23 70 -52 127 -29 58 -49 109 -45 118 7 19 104 33 144 20 23 -8 32
-21 50 -73 24 -68 43 -98 43 -64 0 17 -6 47 -25 130 -2 11 -16 26 -30 32 -28
13 -132 14 -181 3z"/>
<path d="M46 602 c-4 -7 -8 -39 -7 -70 1 -68 -6 -92 -25 -92 -9 0 -13 -9 -12
-25 1 -14 8 -25 14 -25 17 0 24 -59 24 -196 0 -145 3 -150 90 -146 45 1 63 -2
83 -18 14 -11 39 -23 56 -26 28 -6 31 -4 31 20 l0 27 88 -6 c48 -4 98 -6 112
-6 94 1 151 8 162 19 9 9 8 12 -9 12 -12 0 -24 -6 -26 -12 -4 -10 -8 -10 -14
-1 -12 16 -184 17 -196 0 -7 -9 -10 -9 -14 1 -6 16 -136 16 -164 0 -17 -10
-23 -11 -26 0 -3 8 -29 12 -79 12 l-74 0 -2 273 c-2 154 -7 266 -12 259z"/>
</g>
</svg>
